<?xml version="1.0" encoding="UTF-8" standalone="no"?><svg xmlns="http://www.w3.org/2000/svg" xmlns:xlink="http://www.w3.org/1999/xlink" contentScriptType="application/ecmascript" contentStyleType="text/css" height="508px" preserveAspectRatio="none" style="width:1167px;height:508px;" version="1.1" viewBox="0 0 1167 508" width="1167px" zoomAndPan="magnify"><defs><filter height="300%" id="f1ws10r8kln2k8" width="300%" x="-1" y="-1"><feGaussianBlur result="blurOut" stdDeviation="2.0"/><feColorMatrix in="blurOut" result="blurOut2" type="matrix" values="0 0 0 0 0 0 0 0 0 0 0 0 0 0 0 0 0 0 .4 0"/><feOffset dx="4.0" dy="4.0" in="blurOut2" result="blurOut3"/><feBlend in="SourceGraphic" in2="blurOut3" mode="normal"/></filter></defs><g><!--class Order--><rect fill="#FEFECE" filter="url(#f1ws10r8kln2k8)" height="123.0156" id="Order" style="stroke: #A80036; stroke-width: 1.5;" width="127" x="45.5" y="233"/><ellipse cx="89.3" cy="249" fill="#ADD1B2" rx="11" ry="11" style="stroke: #A80036; stroke-width: 1.0;"/><path d="M92.0656,244.875 Q92.2219,244.6563 92.4094,244.5469 Q92.5969,244.4375 92.8156,244.4375 Q93.1906,244.4375 93.425,244.7031 Q93.6594,244.9531 93.6594,245.5625 L93.6594,247.0156 Q93.6594,247.625 93.425,247.8906 Q93.1906,248.1563 92.8156,248.1563 Q92.4719,248.1563 92.2688,247.9531 Q92.0656,247.7656 91.9563,247.25 Q91.9094,246.8906 91.7219,246.7031 Q91.3938,246.3281 90.7844,246.1094 Q90.175,245.8906 89.55,245.8906 Q88.7844,245.8906 88.1438,246.2188 Q87.5188,246.5469 87.0188,247.2969 Q86.5344,248.0469 86.5344,249.0781 L86.5344,250.1719 Q86.5344,251.4063 87.425,252.2344 Q88.3156,253.0469 89.9094,253.0469 Q90.8469,253.0469 91.5031,252.7969 Q91.8938,252.6406 92.3156,252.2031 Q92.5813,251.9375 92.7219,251.8594 Q92.8781,251.7813 93.0813,251.7813 Q93.4094,251.7813 93.6594,252.0469 Q93.925,252.2969 93.925,252.6406 Q93.925,252.9844 93.5813,253.3906 Q93.0813,253.9688 92.2844,254.2969 Q91.2063,254.75 89.9094,254.75 Q88.3938,254.75 87.1906,254.125 Q86.2063,253.625 85.5188,252.5625 Q84.8313,251.4844 84.8313,250.2031 L84.8313,249.0469 Q84.8313,247.7188 85.4406,246.5781 Q86.0656,245.4219 87.1594,244.8125 Q88.2531,244.1875 89.4875,244.1875 Q90.2219,244.1875 90.8625,244.3594 Q91.5188,244.5156 92.0656,244.875 Z "/><text fill="#000000" font-family="sans-serif" font-size="12" lengthAdjust="spacingAndGlyphs" textLength="31" x="109.7" y="253.9102">Order</text><line style="stroke: #A80036; stroke-width: 1.5;" x1="46.5" x2="171.5" y1="265" y2="265"/><rect fill="none" height="6" style="stroke: #C82930; stroke-width: 1.0;" width="6" x="53.5" y="274.418"/><text fill="#000000" font-family="sans-serif" font-size="11" lengthAdjust="spacingAndGlyphs" textLength="8" x="65.5" y="280.4189">id</text><text fill="#000000" font-family="sans-serif" font-size="11" font-weight="bold" lengthAdjust="spacingAndGlyphs" textLength="29" x="76.5" y="280.4189">:Int64</text><rect fill="none" height="6" style="stroke: #C82930; stroke-width: 1.0;" width="6" x="53.5" y="288.2539"/><text fill="#000000" font-family="sans-serif" font-size="11" lengthAdjust="spacingAndGlyphs" textLength="23" x="65.5" y="294.2549">petId</text><text fill="#000000" font-family="sans-serif" font-size="11" font-weight="bold" lengthAdjust="spacingAndGlyphs" textLength="29" x="91.5" y="294.2549">:Int64</text><rect fill="none" height="6" style="stroke: #C82930; stroke-width: 1.0;" width="6" x="53.5" y="302.0898"/><text fill="#000000" font-family="sans-serif" font-size="11" lengthAdjust="spacingAndGlyphs" textLength="38" x="65.5" y="308.0908">quantity</text><text fill="#000000" font-family="sans-serif" font-size="11" font-weight="bold" lengthAdjust="spacingAndGlyphs" textLength="29" x="106.5" y="308.0908">:Int32</text><rect fill="none" height="6" style="stroke: #C82930; stroke-width: 1.0;" width="6" x="53.5" y="315.9258"/><text fill="#000000" font-family="sans-serif" font-size="11" lengthAdjust="spacingAndGlyphs" textLength="42" x="65.5" y="321.9268">shipDate</text><text fill="#000000" font-family="sans-serif" font-size="11" font-weight="bold" lengthAdjust="spacingAndGlyphs" textLength="56" x="110.5" y="321.9268">:Date-time</text><rect fill="none" height="6" style="stroke: #C82930; stroke-width: 1.0;" width="6" x="53.5" y="329.7617"/><text fill="#000000" font-family="sans-serif" font-size="11" lengthAdjust="spacingAndGlyphs" textLength="30" x="65.5" y="335.7627">status</text><text fill="#000000" font-family="sans-serif" font-size="11" font-weight="bold" lengthAdjust="spacingAndGlyphs" textLength="36" x="98.5" y="335.7627">:String</text><rect fill="none" height="6" style="stroke: #C82930; stroke-width: 1.0;" width="6" x="53.5" y="343.5977"/><text fill="#000000" font-family="sans-serif" font-size="11" lengthAdjust="spacingAndGlyphs" textLength="43" x="65.5" y="349.5986">complete</text><text fill="#000000" font-family="sans-serif" font-size="11" font-weight="bold" lengthAdjust="spacingAndGlyphs" textLength="47" x="111.5" y="349.5986">:Boolean</text><!--class Category--><rect fill="#FEFECE" filter="url(#f1ws10r8kln2k8)" height="67.6719" id="Category" style="stroke: #A80036; stroke-width: 1.5;" width="91" x="256.5" y="430"/><ellipse cx="276" cy="446" fill="#ADD1B2" rx="11" ry="11" style="stroke: #A80036; stroke-width: 1.0;"/><path d="M278.7656,441.875 Q278.9219,441.6563 279.1094,441.5469 Q279.2969,441.4375 279.5156,441.4375 Q279.8906,441.4375 280.125,441.7031 Q280.3594,441.9531 280.3594,442.5625 L280.3594,444.0156 Q280.3594,444.625 280.125,444.8906 Q279.8906,445.1563 279.5156,445.1563 Q279.1719,445.1563 278.9688,444.9531 Q278.7656,444.7656 278.6563,444.25 Q278.6094,443.8906 278.4219,443.7031 Q278.0938,443.3281 277.4844,443.1094 Q276.875,442.8906 276.25,442.8906 Q275.4844,442.8906 274.8438,443.2188 Q274.2188,443.5469 273.7188,444.2969 Q273.2344,445.0469 273.2344,446.0781 L273.2344,447.1719 Q273.2344,448.4063 274.125,449.2344 Q275.0156,450.0469 276.6094,450.0469 Q277.5469,450.0469 278.2031,449.7969 Q278.5938,449.6406 279.0156,449.2031 Q279.2813,448.9375 279.4219,448.8594 Q279.5781,448.7813 279.7813,448.7813 Q280.1094,448.7813 280.3594,449.0469 Q280.625,449.2969 280.625,449.6406 Q280.625,449.9844 280.2813,450.3906 Q279.7813,450.9688 278.9844,451.2969 Q277.9063,451.75 276.6094,451.75 Q275.0938,451.75 273.8906,451.125 Q272.9063,450.625 272.2188,449.5625 Q271.5313,448.4844 271.5313,447.2031 L271.5313,446.0469 Q271.5313,444.7188 272.1406,443.5781 Q272.7656,442.4219 273.8594,441.8125 Q274.9531,441.1875 276.1875,441.1875 Q276.9219,441.1875 277.5625,441.3594 Q278.2188,441.5156 278.7656,441.875 Z "/><text fill="#000000" font-family="sans-serif" font-size="12" lengthAdjust="spacingAndGlyphs" textLength="49" x="291" y="450.9102">Category</text><line style="stroke: #A80036; stroke-width: 1.5;" x1="257.5" x2="346.5" y1="462" y2="462"/><rect fill="none" height="6" style="stroke: #C82930; stroke-width: 1.0;" width="6" x="264.5" y="471.418"/><text fill="#000000" font-family="sans-serif" font-size="11" lengthAdjust="spacingAndGlyphs" textLength="8" x="276.5" y="477.4189">id</text><text fill="#000000" font-family="sans-serif" font-size="11" font-weight="bold" lengthAdjust="spacingAndGlyphs" textLength="29" x="287.5" y="477.4189">:Int64</text><rect fill="none" height="6" style="stroke: #C82930; stroke-width: 1.0;" width="6" x="264.5" y="485.2539"/><text fill="#000000" font-family="sans-serif" font-size="11" lengthAdjust="spacingAndGlyphs" textLength="26" x="276.5" y="491.2549">name</text><text fill="#000000" font-family="sans-serif" font-size="11" font-weight="bold" lengthAdjust="spacingAndGlyphs" textLength="36" x="305.5" y="491.2549">:String</text><!--class User--><rect fill="#FEFECE" filter="url(#f1ws10r8kln2k8)" height="150.6875" id="User" style="stroke: #A80036; stroke-width: 1.5;" width="115" x="751.5" y="219"/><ellipse cx="791.7" cy="235" fill="#ADD1B2" rx="11" ry="11" style="stroke: #A80036; stroke-width: 1.0;"/><path d="M794.4656,230.875 Q794.6219,230.6563 794.8094,230.5469 Q794.9969,230.4375 795.2156,230.4375 Q795.5906,230.4375 795.825,230.7031 Q796.0594,230.9531 796.0594,231.5625 L796.0594,233.0156 Q796.0594,233.625 795.825,233.8906 Q795.5906,234.1563 795.2156,234.1563 Q794.8719,234.1563 794.6688,233.9531 Q794.4656,233.7656 794.3563,233.25 Q794.3094,232.8906 794.1219,232.7031 Q793.7938,232.3281 793.1844,232.1094 Q792.575,231.8906 791.95,231.8906 Q791.1844,231.8906 790.5438,232.2188 Q789.9188,232.5469 789.4188,233.2969 Q788.9344,234.0469 788.9344,235.0781 L788.9344,236.1719 Q788.9344,237.4063 789.825,238.2344 Q790.7156,239.0469 792.3094,239.0469 Q793.2469,239.0469 793.9031,238.7969 Q794.2938,238.6406 794.7156,238.2031 Q794.9813,237.9375 795.1219,237.8594 Q795.2781,237.7813 795.4813,237.7813 Q795.8094,237.7813 796.0594,238.0469 Q796.325,238.2969 796.325,238.6406 Q796.325,238.9844 795.9813,239.3906 Q795.4813,239.9688 794.6844,240.2969 Q793.6063,240.75 792.3094,240.75 Q790.7938,240.75 789.5906,240.125 Q788.6063,239.625 787.9188,238.5625 Q787.2313,237.4844 787.2313,236.2031 L787.2313,235.0469 Q787.2313,233.7188 787.8406,232.5781 Q788.4656,231.4219 789.5594,230.8125 Q790.6531,230.1875 791.8875,230.1875 Q792.6219,230.1875 793.2625,230.3594 Q793.9188,230.5156 794.4656,230.875 Z "/><text fill="#000000" font-family="sans-serif" font-size="12" lengthAdjust="spacingAndGlyphs" textLength="27" x="811.3" y="239.9102">User</text><line style="stroke: #A80036; stroke-width: 1.5;" x1="752.5" x2="865.5" y1="251" y2="251"/><rect fill="none" height="6" style="stroke: #C82930; stroke-width: 1.0;" width="6" x="759.5" y="260.418"/><text fill="#000000" font-family="sans-serif" font-size="11" lengthAdjust="spacingAndGlyphs" textLength="8" x="771.5" y="266.4189">id</text><text fill="#000000" font-family="sans-serif" font-size="11" font-weight="bold" lengthAdjust="spacingAndGlyphs" textLength="29" x="782.5" y="266.4189">:Int64</text><rect fill="none" height="6" style="stroke: #C82930; stroke-width: 1.0;" width="6" x="759.5" y="274.2539"/><text fill="#000000" font-family="sans-serif" font-size="11" lengthAdjust="spacingAndGlyphs" textLength="48" x="771.5" y="280.2549">username</text><text fill="#000000" font-family="sans-serif" font-size="11" font-weight="bold" lengthAdjust="spacingAndGlyphs" textLength="36" x="822.5" y="280.2549">:String</text><rect fill="none" height="6" style="stroke: #C82930; stroke-width: 1.0;" width="6" x="759.5" y="288.0898"/><text fill="#000000" font-family="sans-serif" font-size="11" lengthAdjust="spacingAndGlyphs" textLength="46" x="771.5" y="294.0908">firstName</text><text fill="#000000" font-family="sans-serif" font-size="11" font-weight="bold" lengthAdjust="spacingAndGlyphs" textLength="36" x="820.5" y="294.0908">:String</text><rect fill="none" height="6" style="stroke: #C82930; stroke-width: 1.0;" width="6" x="759.5" y="301.9258"/><text fill="#000000" font-family="sans-serif" font-size="11" lengthAdjust="spacingAndGlyphs" textLength="44" x="771.5" y="307.9268">lastName</text><text fill="#000000" font-family="sans-serif" font-size="11" font-weight="bold" lengthAdjust="spacingAndGlyphs" textLength="36" x="818.5" y="307.9268">:String</text><rect fill="none" height="6" style="stroke: #C82930; stroke-width: 1.0;" width="6" x="759.5" y="315.7617"/><text fill="#000000" font-family="sans-serif" font-size="11" lengthAdjust="spacingAndGlyphs" textLength="24" x="771.5" y="321.7627">email</text><text fill="#000000" font-family="sans-serif" font-size="11" font-weight="bold" lengthAdjust="spacingAndGlyphs" textLength="36" x="798.5" y="321.7627">:String</text><rect fill="none" height="6" style="stroke: #C82930; stroke-width: 1.0;" width="6" x="759.5" y="329.5977"/><text fill="#000000" font-family="sans-serif" font-size="11" lengthAdjust="spacingAndGlyphs" textLength="50" x="771.5" y="335.5986">password</text><text fill="#000000" font-family="sans-serif" font-size="11" font-weight="bold" lengthAdjust="spacingAndGlyphs" textLength="36" x="824.5" y="335.5986">:String</text><rect fill="none" height="6" style="stroke: #C82930; stroke-width: 1.0;" width="6" x="759.5" y="343.4336"/><text fill="#000000" font-family="sans-serif" font-size="11" lengthAdjust="spacingAndGlyphs" textLength="30" x="771.5" y="349.4346">phone</text><text fill="#000000" font-family="sans-serif" font-size="11" font-weight="bold" lengthAdjust="spacingAndGlyphs" textLength="36" x="804.5" y="349.4346">:String</text><rect fill="none" height="6" style="stroke: #C82930; stroke-width: 1.0;" width="6" x="759.5" y="357.2695"/><text fill="#000000" font-family="sans-serif" font-size="11" lengthAdjust="spacingAndGlyphs" textLength="53" x="771.5" y="363.2705">userStatus</text><text fill="#000000" font-family="sans-serif" font-size="11" font-weight="bold" lengthAdjust="spacingAndGlyphs" textLength="29" x="827.5" y="363.2705">:Int32</text><!--class Tag--><rect fill="#FEFECE" filter="url(#f1ws10r8kln2k8)" height="67.6719" id="Tag" style="stroke: #A80036; stroke-width: 1.5;" width="91" x="382.5" y="430"/><ellipse cx="414.6" cy="446" fill="#ADD1B2" rx="11" ry="11" style="stroke: #A80036; stroke-width: 1.0;"/><path d="M417.3656,441.875 Q417.5219,441.6563 417.7094,441.5469 Q417.8969,441.4375 418.1156,441.4375 Q418.4906,441.4375 418.725,441.7031 Q418.9594,441.9531 418.9594,442.5625 L418.9594,444.0156 Q418.9594,444.625 418.725,444.8906 Q418.4906,445.1563 418.1156,445.1563 Q417.7719,445.1563 417.5688,444.9531 Q417.3656,444.7656 417.2563,444.25 Q417.2094,443.8906 417.0219,443.7031 Q416.6938,443.3281 416.0844,443.1094 Q415.475,442.8906 414.85,442.8906 Q414.0844,442.8906 413.4438,443.2188 Q412.8188,443.5469 412.3188,444.2969 Q411.8344,445.0469 411.8344,446.0781 L411.8344,447.1719 Q411.8344,448.4063 412.725,449.2344 Q413.6156,450.0469 415.2094,450.0469 Q416.1469,450.0469 416.8031,449.7969 Q417.1938,449.6406 417.6156,449.2031 Q417.8813,448.9375 418.0219,448.8594 Q418.1781,448.7813 418.3813,448.7813 Q418.7094,448.7813 418.9594,449.0469 Q419.225,449.2969 419.225,449.6406 Q419.225,449.9844 418.8813,450.3906 Q418.3813,450.9688 417.5844,451.2969 Q416.5063,451.75 415.2094,451.75 Q413.6938,451.75 412.4906,451.125 Q411.5063,450.625 410.8188,449.5625 Q410.1313,448.4844 410.1313,447.2031 L410.1313,446.0469 Q410.1313,444.7188 410.7406,443.5781 Q411.3656,442.4219 412.4594,441.8125 Q413.5531,441.1875 414.7875,441.1875 Q415.5219,441.1875 416.1625,441.3594 Q416.8188,441.5156 417.3656,441.875 Z "/><text fill="#000000" font-family="sans-serif" font-size="12" lengthAdjust="spacingAndGlyphs" textLength="21" x="432.4" y="450.9102">Tag</text><line style="stroke: #A80036; stroke-width: 1.5;" x1="383.5" x2="472.5" y1="462" y2="462"/><rect fill="none" height="6" style="stroke: #C82930; stroke-width: 1.0;" width="6" x="390.5" y="471.418"/><text fill="#000000" font-family="sans-serif" font-size="11" lengthAdjust="spacingAndGlyphs" textLength="8" x="402.5" y="477.4189">id</text><text fill="#000000" font-family="sans-serif" font-size="11" font-weight="bold" lengthAdjust="spacingAndGlyphs" textLength="29" x="413.5" y="477.4189">:Int64</text><rect fill="none" height="6" style="stroke: #C82930; stroke-width: 1.0;" width="6" x="390.5" y="485.2539"/><text fill="#000000" font-family="sans-serif" font-size="11" lengthAdjust="spacingAndGlyphs" textLength="26" x="402.5" y="491.2549">name</text><text fill="#000000" font-family="sans-serif" font-size="11" font-weight="bold" lengthAdjust="spacingAndGlyphs" textLength="36" x="431.5" y="491.2549">:String</text><!--class Pet--><rect fill="#FEFECE" filter="url(#f1ws10r8kln2k8)" height="123.0156" id="Pet" style="stroke: #A80036; stroke-width: 1.5;" width="133" x="298.5" y="233"/><ellipse cx="351.75" cy="249" fill="#ADD1B2" rx="11" ry="11" style="stroke: #A80036; stroke-width: 1.0;"/><path d="M354.5156,244.875 Q354.6719,244.6563 354.8594,244.5469 Q355.0469,244.4375 355.2656,244.4375 Q355.6406,244.4375 355.875,244.7031 Q356.1094,244.9531 356.1094,245.5625 L356.1094,247.0156 Q356.1094,247.625 355.875,247.8906 Q355.6406,248.1563 355.2656,248.1563 Q354.9219,248.1563 354.7188,247.9531 Q354.5156,247.7656 354.4063,247.25 Q354.3594,246.8906 354.1719,246.7031 Q353.8438,246.3281 353.2344,246.1094 Q352.625,245.8906 352,245.8906 Q351.2344,245.8906 350.5938,246.2188 Q349.9688,246.5469 349.4688,247.2969 Q348.9844,248.0469 348.9844,249.0781 L348.9844,250.1719 Q348.9844,251.4063 349.875,252.2344 Q350.7656,253.0469 352.3594,253.0469 Q353.2969,253.0469 353.9531,252.7969 Q354.3438,252.6406 354.7656,252.2031 Q355.0313,251.9375 355.1719,251.8594 Q355.3281,251.7813 355.5313,251.7813 Q355.8594,251.7813 356.1094,252.0469 Q356.375,252.2969 356.375,252.6406 Q356.375,252.9844 356.0313,253.3906 Q355.5313,253.9688 354.7344,254.2969 Q353.6563,254.75 352.3594,254.75 Q350.8438,254.75 349.6406,254.125 Q348.6563,253.625 347.9688,252.5625 Q347.2813,251.4844 347.2813,250.2031 L347.2813,249.0469 Q347.2813,247.7188 347.8906,246.5781 Q348.5156,245.4219 349.6094,244.8125 Q350.7031,244.1875 351.9375,244.1875 Q352.6719,244.1875 353.3125,244.3594 Q353.9688,244.5156 354.5156,244.875 Z "/><text fill="#000000" font-family="sans-serif" font-size="12" lengthAdjust="spacingAndGlyphs" textLength="18" x="372.25" y="253.9102">Pet</text><line style="stroke: #A80036; stroke-width: 1.5;" x1="299.5" x2="430.5" y1="265" y2="265"/><rect fill="none" height="6" style="stroke: #C82930; stroke-width: 1.0;" width="6" x="306.5" y="274.418"/><text fill="#000000" font-family="sans-serif" font-size="11" lengthAdjust="spacingAndGlyphs" textLength="8" x="318.5" y="280.4189">id</text><text fill="#000000" font-family="sans-serif" font-size="11" font-weight="bold" lengthAdjust="spacingAndGlyphs" textLength="29" x="329.5" y="280.4189">:Int64</text><rect fill="none" height="6" style="stroke: #C82930; stroke-width: 1.0;" width="6" x="306.5" y="288.2539"/><text fill="#000000" font-family="sans-serif" font-size="11" lengthAdjust="spacingAndGlyphs" textLength="43" x="318.5" y="294.2549">category</text><text fill="#000000" font-family="sans-serif" font-size="11" font-weight="bold" lengthAdjust="spacingAndGlyphs" textLength="61" x="364.5" y="294.2549">:Category[]</text><rect fill="none" height="6" style="stroke: #C82930; stroke-width: 1.0;" width="6" x="306.5" y="302.0898"/><text fill="#000000" font-family="sans-serif" font-size="11" lengthAdjust="spacingAndGlyphs" textLength="26" x="318.5" y="308.0908">name</text><text fill="#000000" font-family="sans-serif" font-size="11" font-weight="bold" lengthAdjust="spacingAndGlyphs" textLength="36" x="347.5" y="308.0908">:String</text><rect fill="none" height="6" style="stroke: #C82930; stroke-width: 1.0;" width="6" x="306.5" y="315.9258"/><text fill="#000000" font-family="sans-serif" font-size="11" lengthAdjust="spacingAndGlyphs" textLength="46" x="318.5" y="321.9268">photoUrls</text><text fill="#000000" font-family="sans-serif" font-size="11" font-weight="bold" lengthAdjust="spacingAndGlyphs" textLength="44" x="367.5" y="321.9268">:String[]</text><rect fill="none" height="6" style="stroke: #C82930; stroke-width: 1.0;" width="6" x="306.5" y="329.7617"/><text fill="#000000" font-family="sans-serif" font-size="11" lengthAdjust="spacingAndGlyphs" textLength="21" x="318.5" y="335.7627">tags</text><text fill="#000000" font-family="sans-serif" font-size="11" font-weight="bold" lengthAdjust="spacingAndGlyphs" textLength="31" x="342.5" y="335.7627">:Tag[]</text><rect fill="none" height="6" style="stroke: #C82930; stroke-width: 1.0;" width="6" x="306.5" y="343.5977"/><text fill="#000000" font-family="sans-serif" font-size="11" lengthAdjust="spacingAndGlyphs" textLength="30" x="318.5" y="349.5986">status</text><text fill="#000000" font-family="sans-serif" font-size="11" font-weight="bold" lengthAdjust="spacingAndGlyphs" textLength="36" x="351.5" y="349.5986">:String</text><!--class ApiResponse--><rect fill="#FEFECE" filter="url(#f1ws10r8kln2k8)" height="81.5078" id="ApiResponse" style="stroke: #A80036; stroke-width: 1.5;" width="109" x="466.5" y="253.5"/><ellipse cx="482.4" cy="269.5" fill="#ADD1B2" rx="11" ry="11" style="stroke: #A80036; stroke-width: 1.0;"/><path d="M485.1656,265.375 Q485.3219,265.1563 485.5094,265.0469 Q485.6969,264.9375 485.9156,264.9375 Q486.2906,264.9375 486.525,265.2031 Q486.7594,265.4531 486.7594,266.0625 L486.7594,267.5156 Q486.7594,268.125 486.525,268.3906 Q486.2906,268.6563 485.9156,268.6563 Q485.5719,268.6563 485.3688,268.4531 Q485.1656,268.2656 485.0563,267.75 Q485.0094,267.3906 484.8219,267.2031 Q484.4938,266.8281 483.8844,266.6094 Q483.275,266.3906 482.65,266.3906 Q481.8844,266.3906 481.2438,266.7188 Q480.6188,267.0469 480.1188,267.7969 Q479.6344,268.5469 479.6344,269.5781 L479.6344,270.6719 Q479.6344,271.9063 480.525,272.7344 Q481.4156,273.5469 483.0094,273.5469 Q483.9469,273.5469 484.6031,273.2969 Q484.9938,273.1406 485.4156,272.7031 Q485.6813,272.4375 485.8219,272.3594 Q485.9781,272.2813 486.1813,272.2813 Q486.5094,272.2813 486.7594,272.5469 Q487.025,272.7969 487.025,273.1406 Q487.025,273.4844 486.6813,273.8906 Q486.1813,274.4688 485.3844,274.7969 Q484.3063,275.25 483.0094,275.25 Q481.4938,275.25 480.2906,274.625 Q479.3063,274.125 478.6188,273.0625 Q477.9313,271.9844 477.9313,270.7031 L477.9313,269.5469 Q477.9313,268.2188 478.5406,267.0781 Q479.1656,265.9219 480.2594,265.3125 Q481.3531,264.6875 482.5875,264.6875 Q483.3219,264.6875 483.9625,264.8594 Q484.6188,265.0156 485.1656,265.375 Z "/><text fill="#000000" font-family="sans-serif" font-size="12" lengthAdjust="spacingAndGlyphs" textLength="75" x="496.6" y="274.4102">ApiResponse</text><line style="stroke: #A80036; stroke-width: 1.5;" x1="467.5" x2="574.5" y1="285.5" y2="285.5"/><rect fill="none" height="6" style="stroke: #C82930; stroke-width: 1.0;" width="6" x="474.5" y="294.918"/><text fill="#000000" font-family="sans-serif" font-size="11" lengthAdjust="spacingAndGlyphs" textLength="24" x="486.5" y="300.9189">code</text><text fill="#000000" font-family="sans-serif" font-size="11" font-weight="bold" lengthAdjust="spacingAndGlyphs" textLength="29" x="513.5" y="300.9189">:Int32</text><rect fill="none" height="6" style="stroke: #C82930; stroke-width: 1.0;" width="6" x="474.5" y="308.7539"/><text fill="#000000" font-family="sans-serif" font-size="11" lengthAdjust="spacingAndGlyphs" textLength="21" x="486.5" y="314.7549">type</text><text fill="#000000" font-family="sans-serif" font-size="11" font-weight="bold" lengthAdjust="spacingAndGlyphs" textLength="36" x="510.5" y="314.7549">:String</text><rect fill="none" height="6" style="stroke: #C82930; stroke-width: 1.0;" width="6" x="474.5" y="322.5898"/><text fill="#000000" font-family="sans-serif" font-size="11" lengthAdjust="spacingAndGlyphs" textLength="44" x="486.5" y="328.5908">message</text><text fill="#000000" font-family="sans-serif" font-size="11" font-weight="bold" lengthAdjust="spacingAndGlyphs" textLength="36" x="533.5" y="328.5908">:String</text><!--class PetApi--><rect fill="#FEFECE" filter="url(#f1ws10r8kln2k8)" height="150.6875" id="PetApi" style="stroke: #A80036; stroke-width: 1.5;" width="392" x="247" y="8"/><ellipse cx="420.75" cy="24" fill="#B4A7E5" rx="11" ry="11" style="stroke: #A80036; stroke-width: 1.0;"/><path d="M421.7031,20.6406 L421.7031,27.2969 L423.4219,27.2969 Q424.0313,27.2969 424.2969,27.5313 Q424.5625,27.7656 424.5625,28.1563 Q424.5625,28.5313 424.2969,28.7656 Q424.0313,29 423.4219,29 L418.2813,29 Q417.6719,29 417.4063,28.7656 Q417.1406,28.5313 417.1406,28.1406 Q417.1406,27.7656 417.4063,27.5313 Q417.6719,27.2969 418.2813,27.2969 L420,27.2969 L420,20.6406 L418.2813,20.6406 Q417.6719,20.6406 417.4063,20.4063 Q417.1406,20.1719 417.1406,19.7813 Q417.1406,19.4063 417.4063,19.1719 Q417.6719,18.9375 418.2813,18.9375 L423.4219,18.9375 Q424.0313,18.9375 424.2969,19.1719 Q424.5625,19.4063 424.5625,19.7813 Q424.5625,20.1719 424.2969,20.4063 Q424.0313,20.6406 423.4219,20.6406 L421.7031,20.6406 Z "/><text fill="#000000" font-family="sans-serif" font-size="12" font-style="italic" lengthAdjust="spacingAndGlyphs" textLength="36" x="441.25" y="28.9102">PetApi</text><line style="stroke: #A80036; stroke-width: 1.5;" x1="248" x2="638" y1="40" y2="40"/><ellipse cx="258" cy="52.418" fill="#84BE84" rx="3" ry="3" style="stroke: #038048; stroke-width: 1.0;"/><text fill="#000000" font-family="sans-serif" font-size="11" font-style="italic" lengthAdjust="spacingAndGlyphs" textLength="100" x="267" y="55.4189">updatePet(Pet body)</text><text fill="#000000" font-family="sans-serif" font-size="11" font-weight="bold" lengthAdjust="spacingAndGlyphs" textLength="26" x="367" y="55.4189">:void</text><ellipse cx="258" cy="66.2539" fill="#84BE84" rx="3" ry="3" style="stroke: #038048; stroke-width: 1.0;"/><text fill="#000000" font-family="sans-serif" font-size="11" font-style="italic" lengthAdjust="spacingAndGlyphs" textLength="85" x="267" y="69.2549">addPet(Pet body)</text><text fill="#000000" font-family="sans-serif" font-size="11" font-weight="bold" lengthAdjust="spacingAndGlyphs" textLength="26" x="352" y="69.2549">:void</text><ellipse cx="258" cy="80.0898" fill="#84BE84" rx="3" ry="3" style="stroke: #038048; stroke-width: 1.0;"/><text fill="#000000" font-family="sans-serif" font-size="11" font-style="italic" lengthAdjust="spacingAndGlyphs" textLength="159" x="267" y="83.0908">findPetsByStatus(String[] status)</text><text fill="#000000" font-family="sans-serif" font-size="11" font-weight="bold" lengthAdjust="spacingAndGlyphs" textLength="29" x="426" y="83.0908">:Pet[]</text><ellipse cx="258" cy="93.9258" fill="#84BE84" rx="3" ry="3" style="stroke: #038048; stroke-width: 1.0;"/><text fill="#000000" font-family="sans-serif" font-size="11" font-style="italic" lengthAdjust="spacingAndGlyphs" textLength="144" x="267" y="96.9268">findPetsByTags(String[] tags)</text><text fill="#000000" font-family="sans-serif" font-size="11" font-weight="bold" lengthAdjust="spacingAndGlyphs" textLength="29" x="411" y="96.9268">:Pet[]</text><ellipse cx="258" cy="107.7617" fill="#84BE84" rx="3" ry="3" style="stroke: #038048; stroke-width: 1.0;"/><text fill="#000000" font-family="sans-serif" font-size="11" font-style="italic" lengthAdjust="spacingAndGlyphs" textLength="121" x="267" y="110.7627">getPetById(Integer petId)</text><text fill="#000000" font-family="sans-serif" font-size="11" font-weight="bold" lengthAdjust="spacingAndGlyphs" textLength="21" x="388" y="110.7627">:Pet</text><ellipse cx="258" cy="121.5977" fill="#84BE84" rx="3" ry="3" style="stroke: #038048; stroke-width: 1.0;"/><text fill="#000000" font-family="sans-serif" font-size="11" font-style="italic" lengthAdjust="spacingAndGlyphs" textLength="294" x="267" y="124.5986">updatePetWithForm(Integer petId,String name,String status)</text><text fill="#000000" font-family="sans-serif" font-size="11" font-weight="bold" lengthAdjust="spacingAndGlyphs" textLength="26" x="561" y="124.5986">:void</text><ellipse cx="258" cy="135.4336" fill="#84BE84" rx="3" ry="3" style="stroke: #038048; stroke-width: 1.0;"/><text fill="#000000" font-family="sans-serif" font-size="11" font-style="italic" lengthAdjust="spacingAndGlyphs" textLength="115" x="267" y="138.4346">deletePet(Integer petId)</text><text fill="#000000" font-family="sans-serif" font-size="11" font-weight="bold" lengthAdjust="spacingAndGlyphs" textLength="26" x="382" y="138.4346">:void</text><ellipse cx="258" cy="149.2695" fill="#84BE84" rx="3" ry="3" style="stroke: #038048; stroke-width: 1.0;"/><text fill="#000000" font-family="sans-serif" font-size="11" font-style="italic" lengthAdjust="spacingAndGlyphs" textLength="289" x="267" y="152.2705">uploadFile(Integer petId,String additionalMetadata,File file)</text><text fill="#000000" font-family="sans-serif" font-size="11" font-weight="bold" lengthAdjust="spacingAndGlyphs" textLength="77" x="556" y="152.2705">:ApiResponse</text><!--class StoreApi--><rect fill="#FEFECE" filter="url(#f1ws10r8kln2k8)" height="95.3438" id="StoreApi" style="stroke: #A80036; stroke-width: 1.5;" width="206" x="6" y="36"/><ellipse cx="81.25" cy="52" fill="#B4A7E5" rx="11" ry="11" style="stroke: #A80036; stroke-width: 1.0;"/><path d="M82.2031,48.6406 L82.2031,55.2969 L83.9219,55.2969 Q84.5313,55.2969 84.7969,55.5313 Q85.0625,55.7656 85.0625,56.1563 Q85.0625,56.5313 84.7969,56.7656 Q84.5313,57 83.9219,57 L78.7813,57 Q78.1719,57 77.9063,56.7656 Q77.6406,56.5313 77.6406,56.1406 Q77.6406,55.7656 77.9063,55.5313 Q78.1719,55.2969 78.7813,55.2969 L80.5,55.2969 L80.5,48.6406 L78.7813,48.6406 Q78.1719,48.6406 77.9063,48.4063 Q77.6406,48.1719 77.6406,47.7813 Q77.6406,47.4063 77.9063,47.1719 Q78.1719,46.9375 78.7813,46.9375 L83.9219,46.9375 Q84.5313,46.9375 84.7969,47.1719 Q85.0625,47.4063 85.0625,47.7813 Q85.0625,48.1719 84.7969,48.4063 Q84.5313,48.6406 83.9219,48.6406 L82.2031,48.6406 Z "/><text fill="#000000" font-family="sans-serif" font-size="12" font-style="italic" lengthAdjust="spacingAndGlyphs" textLength="47" x="101.75" y="56.9102">StoreApi</text><line style="stroke: #A80036; stroke-width: 1.5;" x1="7" x2="211" y1="68" y2="68"/><ellipse cx="17" cy="80.418" fill="#84BE84" rx="3" ry="3" style="stroke: #038048; stroke-width: 1.0;"/><text fill="#000000" font-family="sans-serif" font-size="11" font-style="italic" lengthAdjust="spacingAndGlyphs" textLength="67" x="26" y="83.4189">getInventory()</text><text fill="#000000" font-family="sans-serif" font-size="11" font-weight="bold" lengthAdjust="spacingAndGlyphs" textLength="26" x="93" y="83.4189">:void</text><ellipse cx="17" cy="94.2539" fill="#84BE84" rx="3" ry="3" style="stroke: #038048; stroke-width: 1.0;"/><text fill="#000000" font-family="sans-serif" font-size="11" font-style="italic" lengthAdjust="spacingAndGlyphs" textLength="120" x="26" y="97.2549">placeOrder(Order body)</text><text fill="#000000" font-family="sans-serif" font-size="11" font-weight="bold" lengthAdjust="spacingAndGlyphs" textLength="35" x="146" y="97.2549">:Order</text><ellipse cx="17" cy="108.0898" fill="#84BE84" rx="3" ry="3" style="stroke: #038048; stroke-width: 1.0;"/><text fill="#000000" font-family="sans-serif" font-size="11" font-style="italic" lengthAdjust="spacingAndGlyphs" textLength="145" x="26" y="111.0908">getOrderById(Integer orderId)</text><text fill="#000000" font-family="sans-serif" font-size="11" font-weight="bold" lengthAdjust="spacingAndGlyphs" textLength="35" x="171" y="111.0908">:Order</text><ellipse cx="17" cy="121.9258" fill="#84BE84" rx="3" ry="3" style="stroke: #038048; stroke-width: 1.0;"/><text fill="#000000" font-family="sans-serif" font-size="11" font-style="italic" lengthAdjust="spacingAndGlyphs" textLength="139" x="26" y="124.9268">deleteOrder(Integer orderId)</text><text fill="#000000" font-family="sans-serif" font-size="11" font-weight="bold" lengthAdjust="spacingAndGlyphs" textLength="26" x="165" y="124.9268">:void</text><!--class UserApi--><rect fill="#FEFECE" filter="url(#f1ws10r8kln2k8)" height="150.6875" id="UserApi" style="stroke: #A80036; stroke-width: 1.5;" width="270" x="674" y="8"/><ellipse cx="782.75" cy="24" fill="#B4A7E5" rx="11" ry="11" style="stroke: #A80036; stroke-width: 1.0;"/><path d="M783.7031,20.6406 L783.7031,27.2969 L785.4219,27.2969 Q786.0313,27.2969 786.2969,27.5313 Q786.5625,27.7656 786.5625,28.1563 Q786.5625,28.5313 786.2969,28.7656 Q786.0313,29 785.4219,29 L780.2813,29 Q779.6719,29 779.4063,28.7656 Q779.1406,28.5313 779.1406,28.1406 Q779.1406,27.7656 779.4063,27.5313 Q779.6719,27.2969 780.2813,27.2969 L782,27.2969 L782,20.6406 L780.2813,20.6406 Q779.6719,20.6406 779.4063,20.4063 Q779.1406,20.1719 779.1406,19.7813 Q779.1406,19.4063 779.4063,19.1719 Q779.6719,18.9375 780.2813,18.9375 L785.4219,18.9375 Q786.0313,18.9375 786.2969,19.1719 Q786.5625,19.4063 786.5625,19.7813 Q786.5625,20.1719 786.2969,20.4063 Q786.0313,20.6406 785.4219,20.6406 L783.7031,20.6406 Z "/><text fill="#000000" font-family="sans-serif" font-size="12" font-style="italic" lengthAdjust="spacingAndGlyphs" textLength="44" x="803.25" y="28.9102">UserApi</text><line style="stroke: #A80036; stroke-width: 1.5;" x1="675" x2="943" y1="40" y2="40"/><ellipse cx="685" cy="52.418" fill="#84BE84" rx="3" ry="3" style="stroke: #038048; stroke-width: 1.0;"/><text fill="#000000" font-family="sans-serif" font-size="11" font-style="italic" lengthAdjust="spacingAndGlyphs" textLength="112" x="694" y="55.4189">createUser(User body)</text><text fill="#000000" font-family="sans-serif" font-size="11" font-weight="bold" lengthAdjust="spacingAndGlyphs" textLength="26" x="806" y="55.4189">:void</text><ellipse cx="685" cy="66.2539" fill="#84BE84" rx="3" ry="3" style="stroke: #038048; stroke-width: 1.0;"/><text fill="#000000" font-family="sans-serif" font-size="11" font-style="italic" lengthAdjust="spacingAndGlyphs" textLength="197" x="694" y="69.2549">createUsersWithArrayInput(User[] body)</text><text fill="#000000" font-family="sans-serif" font-size="11" font-weight="bold" lengthAdjust="spacingAndGlyphs" textLength="26" x="891" y="69.2549">:void</text><ellipse cx="685" cy="80.0898" fill="#84BE84" rx="3" ry="3" style="stroke: #038048; stroke-width: 1.0;"/><text fill="#000000" font-family="sans-serif" font-size="11" font-style="italic" lengthAdjust="spacingAndGlyphs" textLength="189" x="694" y="83.0908">createUsersWithListInput(User[] body)</text><text fill="#000000" font-family="sans-serif" font-size="11" font-weight="bold" lengthAdjust="spacingAndGlyphs" textLength="26" x="883" y="83.0908">:void</text><ellipse cx="685" cy="93.9258" fill="#84BE84" rx="3" ry="3" style="stroke: #038048; stroke-width: 1.0;"/><text fill="#000000" font-family="sans-serif" font-size="11" font-style="italic" lengthAdjust="spacingAndGlyphs" textLength="218" x="694" y="96.9268">loginUser(String username,String password)</text><text fill="#000000" font-family="sans-serif" font-size="11" font-weight="bold" lengthAdjust="spacingAndGlyphs" textLength="26" x="912" y="96.9268">:void</text><ellipse cx="685" cy="107.7617" fill="#84BE84" rx="3" ry="3" style="stroke: #038048; stroke-width: 1.0;"/><text fill="#000000" font-family="sans-serif" font-size="11" font-style="italic" lengthAdjust="spacingAndGlyphs" textLength="61" x="694" y="110.7627">logoutUser()</text><text fill="#000000" font-family="sans-serif" font-size="11" font-weight="bold" lengthAdjust="spacingAndGlyphs" textLength="26" x="755" y="110.7627">:void</text><ellipse cx="685" cy="121.5977" fill="#84BE84" rx="3" ry="3" style="stroke: #038048; stroke-width: 1.0;"/><text fill="#000000" font-family="sans-serif" font-size="11" font-style="italic" lengthAdjust="spacingAndGlyphs" textLength="168" x="694" y="124.5986">getUserByName(String username)</text><text fill="#000000" font-family="sans-serif" font-size="11" font-weight="bold" lengthAdjust="spacingAndGlyphs" textLength="29" x="862" y="124.5986">:User</text><ellipse cx="685" cy="135.4336" fill="#84BE84" rx="3" ry="3" style="stroke: #038048; stroke-width: 1.0;"/><text fill="#000000" font-family="sans-serif" font-size="11" font-style="italic" lengthAdjust="spacingAndGlyphs" textLength="198" x="694" y="138.4346">updateUser(String username,User body)</text><text fill="#000000" font-family="sans-serif" font-size="11" font-weight="bold" lengthAdjust="spacingAndGlyphs" textLength="26" x="892" y="138.4346">:void</text><ellipse cx="685" cy="149.2695" fill="#84BE84" rx="3" ry="3" style="stroke: #038048; stroke-width: 1.0;"/><text fill="#000000" font-family="sans-serif" font-size="11" font-style="italic" lengthAdjust="spacingAndGlyphs" textLength="142" x="694" y="152.2705">deleteUser(String username)</text><text fill="#000000" font-family="sans-serif" font-size="11" font-weight="bold" lengthAdjust="spacingAndGlyphs" textLength="26" x="836" y="152.2705">:void</text><path d="M979,62 L979,104.7031 L1155,104.7031 L1155,72 L1145,62 L979,62 " fill="#FBFB77" filter="url(#f1ws10r8kln2k8)" style="stroke: #A80036; stroke-width: 1.0;"/><path d="M1145,62 L1145,72 L1155,72 L1145,62 " fill="#FBFB77" style="stroke: #A80036; stroke-width: 1.0;"/><text fill="#000000" font-family="sans-serif" font-size="13" lengthAdjust="spacingAndGlyphs" textLength="38" x="985" y="80.4951">Name:</text><text fill="#4169E1" font-family="sans-serif" font-size="13" font-weight="bold" lengthAdjust="spacingAndGlyphs" textLength="113" x="1027" y="80.4951">Swagger Petstore</text><text fill="#000000" font-family="sans-serif" font-size="13" lengthAdjust="spacingAndGlyphs" textLength="48" x="985" y="96.8467">Version:</text><text fill="#4169E1" font-family="sans-serif" font-size="13" font-weight="bold" lengthAdjust="spacingAndGlyphs" textLength="29" x="1037" y="96.8467">1.0.0</text><!--link Pet to Category--><path d="M337.435,368.789 C329.456,390.003 321.134,412.127 314.562,429.6006 " fill="none" id="Pet-Category" style="stroke: #A80036; stroke-width: 1.0;"/><polygon fill="#A80036" points="342.077,356.445,336.2206,360.6524,337.8518,367.6766,343.7083,363.4692,342.077,356.445" style="stroke: #A80036; stroke-width: 1.0;"/><text fill="#000000" font-family="sans-serif" font-size="13" lengthAdjust="spacingAndGlyphs" textLength="20" x="295.0504" y="419.0781">0..*</text><!--link Pet to Tag--><path d="M392.565,368.789 C400.544,390.003 408.866,412.127 415.438,429.6006 " fill="none" id="Pet-Tag" style="stroke: #A80036; stroke-width: 1.0;"/><polygon fill="#A80036" points="387.923,356.445,386.2917,363.4692,392.1482,367.6766,393.7794,360.6524,387.923,356.445" style="stroke: #A80036; stroke-width: 1.0;"/><text fill="#000000" font-family="sans-serif" font-size="13" lengthAdjust="spacingAndGlyphs" textLength="20" x="391.1371" y="419.0781">0..*</text><!--link PetApi to Pet--><path d="M415.171,159.069 C406.792,181.52 397.661,205.985 389.514,227.815 " fill="none" id="PetApi-Pet" style="stroke: #A80036; stroke-width: 1.0;"/><polygon fill="#A80036" points="387.683,232.721,394.5779,225.6881,389.4316,228.0367,387.083,222.8904,387.683,232.721" style="stroke: #A80036; stroke-width: 1.0;"/><!--link PetApi to ApiResponse--><path d="M470.829,159.069 C481.991,188.977 494.486,222.457 504.214,248.523 " fill="none" id="PetApi-ApiResponse" style="stroke: #A80036; stroke-width: 1.0;"/><polygon fill="#A80036" points="505.998,253.302,506.598,243.4714,504.2494,248.6177,499.1031,246.2691,505.998,253.302" style="stroke: #A80036; stroke-width: 1.0;"/><!--link StoreApi to Order--><path d="M109,131.144 C109,159.462 109,196.057 109,227.334 " fill="none" id="StoreApi-Order" style="stroke: #A80036; stroke-width: 1.0;"/><polygon fill="#A80036" points="109,232.706,113,223.706,109,227.706,105,223.706,109,232.706" style="stroke: #A80036; stroke-width: 1.0;"/><!--link UserApi to User--><path d="M809,159.069 C809,176.856 809,195.908 809,213.912 " fill="none" id="UserApi-User" style="stroke: #A80036; stroke-width: 1.0;"/><polygon fill="#A80036" points="809,218.96,813,209.96,809,213.96,805,209.96,809,218.96" style="stroke: #A80036; stroke-width: 1.0;"/><!--
@startuml
hide empty members
set namespaceSeparator none

class  Order {
		 - id <b>:Int64</b> 
		 - petId <b>:Int64</b> 
		 - quantity <b>:Int32</b> 
		 - shipDate <b>:Date-time</b> 
		 - status <b>:String</b> 
		 - complete <b>:Boolean</b> 
}

class  Category {
		 - id <b>:Int64</b> 
		 - name <b>:String</b> 
}

class  User {
		 - id <b>:Int64</b> 
		 - username <b>:String</b> 
		 - firstName <b>:String</b> 
		 - lastName <b>:String</b> 
		 - email <b>:String</b> 
		 - password <b>:String</b> 
		 - phone <b>:String</b> 
		 - userStatus <b>:Int32</b> 
}

class  Tag {
		 - id <b>:Int64</b> 
		 - name <b>:String</b> 
}

class  Pet {
		 - id <b>:Int64</b> 
		 - category <b>:Category[]</b> 
		 - name <b>:String</b> 
		 - photoUrls <b>:String[]</b> 
		 - tags <b>:Tag[]</b> 
		 - status <b>:String</b> 
}

class  ApiResponse {
		 - code <b>:Int32</b> 
		 - type <b>:String</b> 
		 - message <b>:String</b> 
}


interface PetApi {
	 + <i>updatePet(Pet body)</i><b>:void</b> 
	 + <i>addPet(Pet body)</i><b>:void</b> 
	 + <i>findPetsByStatus(String[] status)</i><b>:Pet[]</b> 
	 + <i>findPetsByTags(String[] tags)</i><b>:Pet[]</b> 
	 + <i>getPetById(Integer petId)</i><b>:Pet</b> 
	 + <i>updatePetWithForm(Integer petId,String name,String status)</i><b>:void</b> 
	 + <i>deletePet(Integer petId)</i><b>:void</b> 
	 + <i>uploadFile(Integer petId,String additionalMetadata,File file)</i><b>:ApiResponse</b> 
}

interface StoreApi {
	 + <i>getInventory()</i><b>:void</b> 
	 + <i>placeOrder(Order body)</i><b>:Order</b> 
	 + <i>getOrderById(Integer orderId)</i><b>:Order</b> 
	 + <i>deleteOrder(Integer orderId)</i><b>:void</b> 
}

interface UserApi {
	 + <i>createUser(User body)</i><b>:void</b> 
	 + <i>createUsersWithArrayInput(User[] body)</i><b>:void</b> 
	 + <i>createUsersWithListInput(User[] body)</i><b>:void</b> 
	 + <i>loginUser(String username,String password)</i><b>:void</b> 
	 + <i>logoutUser()</i><b>:void</b> 
	 + <i>getUserByName(String username)</i><b>:User</b> 
	 + <i>updateUser(String username,User body)</i><b>:void</b> 
	 + <i>deleteUser(String username)</i><b>:void</b> 
}


Pet  *- - "0..*"  Category 
Pet  *- - "0..*"  Tag 
PetApi - ->    Pet 
PetApi - ->    ApiResponse 
StoreApi - ->    Order 
UserApi - ->    User 

note as N1
  Name: <b><color:royalBlue>Swagger Petstore</color>
  Version: <b><color:royalBlue>1.0.0</color>
end note


@enduml

PlantUML version 1.2019.07(Mon Jun 24 21:59:20 CEST 2019)
(GPL source distribution)
Java Runtime: OpenJDK Runtime Environment
JVM: OpenJDK 64-Bit Server VM
Java Version: 11+28
Operating System: Windows 10
OS Version: 10.0
Default Encoding: Cp1252
Language: en
Country: GB
--></g></svg>